<svg width="72" height="72" viewBox="0 0 72 72" fill="none" xmlns="http://www.w3.org/2000/svg">
<g filter="url(#filter0_d_807_1734)">
<rect x="3" y="1" width="64" height="64" rx="32" fill="url(#paint0_linear_807_1734)" fill-opacity="0.4"/>
<g filter="url(#filter1_d_807_1734)">
<path d="M52.9774 29.635L52.9773 29.6351L50.3277 31.9535V33.0002V34.0338L52.9356 36.421C52.9358 36.4211 52.9359 36.4212 52.936 36.4213C53.4291 36.8538 53.7565 37.4441 53.8622 38.0914C53.968 38.7388 53.8454 39.4028 53.5154 39.9698C53.5154 39.9698 53.5153 39.9698 53.5153 39.9698L50.3489 45.525L50.3488 45.5252C50.1008 45.9547 49.7443 46.3114 49.315 46.5596C48.8857 46.8077 48.3988 46.9386 47.9031 46.9391C47.9029 46.9391 47.9028 46.9391 47.9027 46.9391L47.9027 46.8891C47.6008 46.8914 47.3006 46.8445 47.0138 46.7502L52.9774 29.635ZM52.9774 29.635C53.4778 29.1939 53.8062 28.5901 53.9045 27.9304C54.0028 27.2708 53.8648 26.5977 53.5149 26.03C53.5149 26.0299 53.5148 26.0297 53.5147 26.0296L50.2376 20.4752L52.9774 29.635ZM46.8867 19.2029L46.8871 19.2027C47.1789 19.1068 47.4845 19.059 47.7918 19.0614M46.8867 19.2029L50.2374 20.4748L50.2374 20.4749C49.9895 20.0456 49.6331 19.689 49.2039 19.4409C48.7746 19.1928 48.2876 19.0619 47.7918 19.0614M46.8867 19.2029L43.5349 20.3339C42.9635 19.9555 42.368 19.6146 41.7523 19.3134L41.0489 15.8377L46.8867 19.2029ZM47.7918 19.0614C47.7918 19.0614 47.7919 19.0614 47.7919 19.0614L47.7916 19.1114L47.7916 19.0614C47.7917 19.0614 47.7917 19.0614 47.7918 19.0614ZM23.1142 19.1475L23.1141 19.1477L26.3961 20.3336C26.9721 19.9552 27.5719 19.6143 28.1919 19.3133L28.8953 15.8377C28.8953 15.8377 28.8953 15.8376 28.8953 15.8376L23.1142 19.1475ZM23.1142 19.1475L23.1097 19.1463M23.1142 19.1475L23.1097 19.1463M23.1097 19.1463C22.8152 19.0696 22.5102 19.0409 22.2065 19.0614C21.7112 19.0622 21.2248 19.193 20.7959 19.4409C20.3667 19.689 20.0102 20.0457 19.7623 20.475C19.7622 20.4751 19.7622 20.4752 19.7621 20.4752L16.4846 26.0304L16.4844 26.0306M23.1097 19.1463L16.4844 26.0306M16.4844 26.0306C16.1544 26.5976 16.0318 27.2617 16.1375 27.9091C16.2433 28.5563 16.5707 29.1467 17.0637 29.5792C17.0639 29.5793 17.064 29.5794 17.0641 29.5795L19.6721 31.9667V34.0472L17.0645 36.3651C17.0644 36.3652 17.0643 36.3653 17.0642 36.3654C16.5572 36.8008 16.2208 37.4018 16.1147 38.0617C16.0086 38.7216 16.1397 39.3978 16.4847 39.9703L16.4846 39.9701L16.5277 39.9447L16.4848 39.9705L19.7621 45.5252L16.4844 26.0306ZM23.1131 46.7976L23.1127 46.7977C22.8208 46.8937 22.5151 46.9415 22.2078 46.9391M23.1131 46.7976L20.8209 46.5163C20.3992 46.2725 20.049 45.9221 19.8054 45.5002L19.7624 45.5257L19.7623 45.5255C20.0102 45.9548 20.3667 46.3114 20.7959 46.5596C21.2251 46.8077 21.7121 46.9386 22.2078 46.9391M23.1131 46.7976L26.4649 45.6666M23.1131 46.7976L26.4649 45.6666M22.2078 46.9391L22.2082 46.8891L22.2082 46.9391C22.2081 46.9391 22.2079 46.9391 22.2078 46.9391ZM26.4649 45.6666C27.0363 46.045 27.6318 46.3859 28.2474 46.6871L28.9508 50.1628C29.0801 50.8137 29.4343 51.3984 29.9512 51.8146C30.4681 52.2307 31.1148 52.4518 31.7782 52.4391H38.3327C38.9961 52.4518 39.6428 52.2307 40.1597 51.8146C40.6766 51.3985 41.0307 50.8138 41.16 50.1629L26.4649 45.6666ZM41.8634 46.6872C42.4836 46.3861 43.0836 46.0451 43.6598 45.6666L41.16 50.1628L41.8634 46.6872ZM43.0437 42.4529L43.0169 42.4438L42.9954 42.4621C41.8847 43.4029 40.6153 44.1382 39.2468 44.6338L39.2202 44.6434L39.2147 44.6711L38.2366 49.6169H31.7631L30.785 44.7266L30.7796 44.6993L30.7536 44.6895C29.3955 44.1798 28.1327 43.4455 27.018 42.5174L26.9968 42.4997L26.9705 42.5083L22.2309 44.0514L18.9945 38.566L22.7413 35.26L22.7624 35.2414L22.7574 35.2137C22.5017 33.7818 22.5017 32.3159 22.7574 30.884L22.7623 30.8568L22.7418 30.8382L18.9942 27.435L22.2307 21.9495L26.9561 23.5476L26.9829 23.5567L27.0044 23.5384C28.1151 22.5976 29.3844 21.8623 30.753 21.3667L30.7796 21.3571L30.785 21.3294L31.7632 16.3836H38.2367L39.2147 21.2739L39.2202 21.3012L39.2462 21.3109C40.6043 21.8207 41.867 22.5549 42.9818 23.4831L43.003 23.5008L43.0293 23.4922L47.7689 21.9491L51.0053 27.4345L47.2585 30.7405L47.2374 30.7591L47.2423 30.7868C47.4981 32.2187 47.4981 33.6846 47.2423 35.1165L47.2375 35.1437L47.2579 35.1623L51.0056 38.5655L47.7691 44.051L43.0437 42.4529Z" fill="#F3F3F6" stroke="#F3F3F6" stroke-width="0.1"/>
<path d="M34.9999 41.3832C33.3418 41.3832 31.7211 40.8915 30.3425 39.9703C28.9638 39.0492 27.8893 37.7399 27.2548 36.208C26.6203 34.6762 26.4543 32.9905 26.7777 31.3643C27.1012 29.7381 27.8997 28.2444 29.0721 27.0719C30.2445 25.8995 31.7383 25.1011 33.3645 24.7776C34.9907 24.4541 36.6763 24.6201 38.2082 25.2547C39.74 25.8892 41.0493 26.9637 41.9705 28.3423C42.8916 29.7209 43.3833 31.3416 43.3833 32.9996M34.9999 41.3832C36.1038 41.3943 37.1989 41.1851 38.2211 40.7678C39.2433 40.3505 40.172 39.7333 40.9527 38.9526C41.7335 38.1718 42.3506 37.2431 42.768 36.2209C43.1853 35.1987 43.3945 34.1036 43.3833 32.9996M34.9999 41.3832C34.9997 41.3832 34.9996 41.3832 34.9995 41.3832L35 41.3332V41.3832C35 41.3832 34.9999 41.3832 34.9999 41.3832ZM43.3833 32.9996C43.3833 32.9997 43.3833 32.9998 43.3833 32.9998H43.3334L43.3833 32.9993C43.3833 32.9994 43.3833 32.9995 43.3833 32.9996ZM34.9988 27.4943L34.9988 27.4943L35.0012 27.4943C35.7286 27.4773 36.452 27.6081 37.1275 27.8787C37.803 28.1494 38.4165 28.5542 38.9311 29.0687C39.4456 29.5833 39.8505 30.1969 40.1211 30.8723C40.3917 31.5478 40.5225 32.2712 40.5056 32.9987L40.5055 32.9987L40.5056 33.001C40.5225 33.7285 40.3917 34.4519 40.1211 35.1273C39.8505 35.8028 39.4456 36.4164 38.9311 36.9309C38.4165 37.4455 37.803 37.8503 37.1275 38.1209C36.452 38.3916 35.7286 38.5224 35.0012 38.5054L35.0012 38.5054L34.9988 38.5054C34.2713 38.5224 33.548 38.3916 32.8725 38.1209C32.197 37.8503 31.5834 37.4455 31.0689 36.9309C30.5543 36.4164 30.1495 35.8028 29.8789 35.1273C29.6083 34.4519 29.4775 33.7285 29.4944 33.001L29.4945 33.001L29.4944 32.9987C29.4775 32.2712 29.6083 31.5478 29.8789 30.8723C30.1495 30.1969 30.5543 29.5833 31.0689 29.0687C31.5834 28.5542 32.197 28.1494 32.8725 27.8787C33.548 27.6081 34.2713 27.4773 34.9988 27.4943Z" fill="#F3F3F6" stroke="#F3F3F6" stroke-width="0.1"/>
</g>
</g>
<defs>
<filter id="filter0_d_807_1734" x="0" y="0" width="72" height="72" filterUnits="userSpaceOnUse" color-interpolation-filters="sRGB">
<feFlood flood-opacity="0" result="BackgroundImageFix"/>
<feColorMatrix in="SourceAlpha" type="matrix" values="0 0 0 0 0 0 0 0 0 0 0 0 0 0 0 0 0 0 127 0" result="hardAlpha"/>
<feOffset dx="1" dy="3"/>
<feGaussianBlur stdDeviation="2"/>
<feColorMatrix type="matrix" values="0 0 0 0 0.286637 0 0 0 0 0.232774 0 0 0 0 0.654167 0 0 0 0.6 0"/>
<feBlend mode="normal" in2="BackgroundImageFix" result="effect1_dropShadow_807_1734"/>
<feBlend mode="normal" in="SourceGraphic" in2="effect1_dropShadow_807_1734" result="shape"/>
</filter>
<filter id="filter1_d_807_1734" x="8.77777" y="8.77783" width="52.4445" height="52.4443" filterUnits="userSpaceOnUse" color-interpolation-filters="sRGB">
<feFlood flood-opacity="0" result="BackgroundImageFix"/>
<feColorMatrix in="SourceAlpha" type="matrix" values="0 0 0 0 0 0 0 0 0 0 0 0 0 0 0 0 0 0 127 0" result="hardAlpha"/>
<feOffset dy="2"/>
<feGaussianBlur stdDeviation="2"/>
<feColorMatrix type="matrix" values="0 0 0 0 0.0960001 0 0 0 0 0 0 0 0 0 0.3 0 0 0 0.25 0"/>
<feBlend mode="normal" in2="BackgroundImageFix" result="effect1_dropShadow_807_1734"/>
<feBlend mode="normal" in="SourceGraphic" in2="effect1_dropShadow_807_1734" result="shape"/>
</filter>
<linearGradient id="paint0_linear_807_1734" x1="11.2286" y1="10.2308" x2="66.7046" y2="18.2812" gradientUnits="userSpaceOnUse">
<stop stop-color="#DEE9F2"/>
<stop offset="1" stop-color="#F5F5F7"/>
</linearGradient>
</defs>
</svg>
